<svg xmlns="http://www.w3.org/2000/svg" data-name="Layer 1" viewBox="0 0 48 48"><circle cx="24" cy="24" r="21"/><path fill="#0f0" d="M17.614 16.665a.976.976 0 1 1 1.378 1.384l-5.98 5.95 5.98 5.952a.976.976 0 1 1-1.378 1.383l-6.674-6.64a.98.98 0 0 1 0-1.387zM29.008 16.665a.976.976 0 0 0-1.378 1.384l5.98 5.95-5.98 5.952a.976.976 0 1 0 1.378 1.383l6.674-6.64a.98.98 0 0 0 0-1.387z"/><path fill="#8b4513" d="m23.51 32.629 2.906-16.93a.976.976 0 1 0-1.924-.328l-2.906 16.93a.976.976 0 1 0 1.924.328"/></svg>