<svg xmlns="http://www.w3.org/2000/svg" viewBox="0 0 512 512"><circle cx="336.844" cy="138.132" r="123.158" fill="#f9f6f9"/><path fill="#dddaec" d="M403.049 34.267c12.213 19.12 19.293 41.835 19.293 66.205 0 68.018-55.14 123.158-123.158 123.158-24.37 0-47.085-7.08-66.205-19.293 21.874 34.245 60.217 56.953 103.865 56.953 68.018 0 123.158-55.14 123.158-123.158 0-43.648-22.708-81.991-56.953-103.865"/><path fill="#d0cee7" d="M336.844 276.264c-76.166 0-138.132-61.965-138.132-138.132S260.678 0 336.844 0s138.132 61.965 138.132 138.132-61.966 138.132-138.132 138.132m0-246.316c-59.653 0-108.184 48.531-108.184 108.184s48.531 108.184 108.184 108.184 108.184-48.531 108.184-108.184S396.497 29.948 336.844 29.948"/><path fill="#beb9dd" d="M379.365 153.027a7.487 7.487 0 1 0 0-14.974H347.14l38.556-58.257a7.487 7.487 0 0 0-2.112-10.376 7.484 7.484 0 0 0-10.375 2.111l-36.043 54.461-36.381-54.807a7.487 7.487 0 1 0-12.475 8.28l38.89 58.587h-32.564a7.487 7.487 0 1 0 0 14.974h35.014l-.032 13.821h-34.982a7.487 7.487 0 1 0 0 14.974h34.948l-.062 26.938a7.49 7.49 0 0 0 7.47 7.505h.018a7.49 7.49 0 0 0 7.487-7.469l.062-26.974h34.808a7.487 7.487 0 1 0 0-14.974h-34.774l.032-13.821h34.74z"/><path fill="#beb9dd" d="M426.411 33.064c20.604 24.134 33.064 55.421 33.064 89.567 0 76.166-61.965 138.132-138.132 138.132-34.146 0-65.432-12.46-89.567-33.064 25.355 29.699 63.047 48.565 105.067 48.565 76.166 0 138.132-61.965 138.132-138.132.001-42.02-18.865-79.712-48.564-105.068"/><circle cx="175.156" cy="240.205" r="123.158" fill="#f9f6f9"/><path fill="#dddaec" d="M241.361 136.34c12.213 19.12 19.293 41.835 19.293 66.205 0 68.018-55.14 123.158-123.158 123.158-24.37 0-47.085-7.08-66.205-19.293 21.874 34.245 60.217 56.953 103.865 56.953 68.018 0 123.158-55.14 123.158-123.158 0-43.649-22.708-81.992-56.953-103.865"/><path fill="#beb9dd" d="M234.235 281.419a7.49 7.49 0 0 0-10.548.925 44 44 0 0 1-4.441 4.583c-8.061 7.18-18.211 10.82-30.167 10.82-24.013 0-44.564-15.051-52.753-36.208h39.924a7.487 7.487 0 1 0 0-14.974h-43.463a57 57 0 0 1-.262-5.371c0-2.613.193-5.181.538-7.701h43.187a7.487 7.487 0 1 0 0-14.974h-38.965c8.757-19.924 28.671-33.879 51.793-33.879 11.333 0 22.266 3.338 31.614 9.654a7.488 7.488 0 0 0 8.382-12.408c-11.833-7.994-25.664-12.22-39.996-12.22-31.515 0-58.316 20.496-67.822 48.853H95.304a7.487 7.487 0 1 0 0 14.974h22.668a72 72 0 0 0-.421 7.701c0 1.809.09 3.596.223 5.371h-22.47a7.487 7.487 0 1 0 0 14.974h25.212c8.787 29.558 36.19 51.183 68.563 51.183 15.518 0 29.394-5.053 40.126-14.611a59 59 0 0 0 5.955-6.144 7.486 7.486 0 0 0-.925-10.548"/><path fill="#ffe07d" d="M175.156 378.336c-76.166 0-138.132-61.965-138.132-138.131s61.965-138.132 138.132-138.132 138.132 61.965 138.132 138.132c0 76.166-61.966 138.131-138.132 138.131m0-246.315c-59.653 0-108.184 48.531-108.184 108.184s48.531 108.183 108.184 108.183S283.34 299.857 283.34 240.205s-48.531-108.184-108.184-108.184"/><path fill="#ffd064" d="M264.723 135.138c20.604 24.134 33.064 55.421 33.064 89.567 0 76.165-61.965 138.131-138.132 138.131-34.146 0-65.433-12.46-89.567-33.065 25.355 29.7 63.047 48.565 105.068 48.565 76.166 0 138.132-61.965 138.132-138.131 0-42.02-18.866-79.712-48.565-105.067"/><circle cx="298.314" cy="373.868" r="123.158" fill="#ffe07d"/><path fill="#ffd064" d="M364.519 270.003c12.213 19.12 19.293 41.835 19.293 66.205 0 68.018-55.14 123.158-123.158 123.158-24.37 0-47.085-7.08-66.205-19.293 21.874 34.245 60.217 56.953 103.865 56.953 68.018 0 123.158-55.14 123.158-123.158-.001-43.648-22.708-81.992-56.953-103.865"/><path fill="#ffc250" d="M298.314 512c-76.166 0-138.132-61.965-138.132-138.132s61.965-138.132 138.132-138.132c76.166 0 138.131 61.965 138.131 138.132S374.48 512 298.314 512m0-246.316c-59.653 0-108.184 48.531-108.184 108.184s48.531 108.184 108.184 108.184 108.183-48.531 108.183-108.184-48.531-108.184-108.183-108.184"/><path fill="#ebb044" d="M387.88 268.801c20.604 24.134 33.064 55.421 33.064 89.567 0 76.166-61.965 138.132-138.131 138.132-34.146 0-65.433-12.46-89.567-33.064C218.602 493.134 256.294 512 298.314 512c76.166 0 138.131-61.965 138.131-138.132 0-42.02-18.865-79.712-48.565-105.067"/><path fill="#ebb044" d="M316.315 368.824a345 345 0 0 1-8.202-3.009v-42.21c7.384 1.43 11.806 5.215 12.148 5.517a7.484 7.484 0 0 0 10.534-.468 7.485 7.485 0 0 0-.427-10.579c-.482-.445-8.749-7.881-22.256-9.629v-9.113a7.487 7.487 0 1 0-14.974 0v9.69a51 51 0 0 0-4.583 1.155c-11.806 3.556-20.63 13.672-23.029 26.398-2.18 11.572 1.504 22.711 9.615 29.073 4.511 3.538 10.165 6.778 17.997 10.223v52.79c-7.352-.389-12.099-1.933-20.172-7.215a7.485 7.485 0 0 0-10.364 2.167 7.486 7.486 0 0 0 2.167 10.364c11.033 7.218 18.477 9.206 28.37 9.655v10.183a7.487 7.487 0 1 0 14.974 0v-10.741c19.12-3.364 30.285-18.951 32.731-33.505 3.093-18.391-6.536-34.386-24.529-40.746m-31.931-14.957c-3.695-2.898-5.282-8.462-4.141-14.518 1.065-5.652 4.943-12.517 12.633-14.833.089-.027.175-.047.264-.073v34.866c-3.581-1.843-6.442-3.627-8.756-5.442m41.694 53.222c-1.428 8.496-7.541 17.549-17.964 20.605v-45.902q1.564.567 3.211 1.15c16.477 5.824 15.458 19.955 14.753 24.147"/></svg>