<svg xmlns="http://www.w3.org/2000/svg" xml:space="preserve" viewBox="0 0 495.268 495.268"><path d="M59.862 495.268c-18.24.011-32.853-5.109-43.232-15.445-21.248-21.237-22.069-59.445-2.347-107.605l19.744 8.085c-15.776 38.528-16.651 70.091-2.325 84.416 17.845 17.739 62.699 9.813 119.968-21.248 41.749-22.656 78.027-47.296 110.901-75.328l13.835 16.224c-34.016 29.013-71.499 54.464-114.56 77.845-40.48 21.963-75.146 33.056-101.984 33.056M351.958 308.868l-15.541-14.624c45.707-48.597 82.709-97.877 106.987-142.539C474.465 94.447 482.39 49.593 464.62 31.748c-14.464-14.475-46.219-13.6-84.907 2.336l-8.128-19.723c48.32-19.925 86.741-19.083 108.139 2.315 25.547 25.664 19.307 77.227-17.568 145.205-25.152 46.251-63.254 97.067-110.198 146.987" style="fill:#403e3e"/><path d="M248.15 482.927c-129.397 0-234.667-105.269-234.667-234.667S118.753 13.593 248.15 13.593s234.667 105.27 234.667 234.667S377.548 482.927 248.15 482.927m0-448c-117.632 0-213.333 95.701-213.333 213.333s95.701 213.333 213.333 213.333 213.333-95.701 213.333-213.333S365.782 34.927 248.15 34.927" style="fill:#403e3e"/><path d="m162.326 344.217-20.842-31.957L312.15 141.593l42.667 42.667L216.15 322.927z" style="fill:#43d3e8"/><path d="m290.817 365.593 21.333-21.376v-117.29h-64z" style="fill:#43d3e8"/><path d="m130.817 205.593 31.509-21.333h107.158v64zM162.326 344.217l-64-21.29 20.843-21.334h54.315zM354.817 184.26c18.315-18.315 21.333-42.667 21.333-64-21.333 0-45.696 3.019-64 21.333z" style="fill:#43d3e8"/></svg>