<svg xmlns="http://www.w3.org/2000/svg" id="a" width="200" height="200" fill="none" viewBox="0 0 48 48"><path fill="#fff" fill-opacity=".01" d="M0 0h48v48H0z"/><path fill="#000" fill-rule="evenodd" stroke="#138fec" stroke-linecap="round" stroke-linejoin="round" d="M24 12a4 4 0 1 0 0-8 4 4 0 0 0 0 8M24 28a4 4 0 1 0 0-8 4 4 0 0 0 0 8M34.393 18a4 4 0 1 0 6.928-4 4 4 0 0 0-6.928 4M34.393 30a4 4 0 1 0 6.928 4 4 4 0 0 0-6.928-4M24 36a4 4 0 1 0 0 8 4 4 0 0 0 0-8M13.608 30a4 4 0 1 0-6.928 4 4 4 0 0 0 6.928-4M13.608 18a4 4 0 1 0-6.928-4 4 4 0 0 0 6.928 4" clip-rule="evenodd"/><animateTransform attributeName="transform" attributeType="xml" dur="2s" from="0" repeatCount="indefinite" to="359" type="rotate"/></svg>